<?xml version="1.0" encoding="UTF-8" standalone="no"?>
<!-- Created with Inkscape (http://www.inkscape.org/) -->
<svg xmlns:inkscape="http://www.inkscape.org/namespaces/inkscape" xmlns:rdf="http://www.w3.org/1999/02/22-rdf-syntax-ns#" xmlns="http://www.w3.org/2000/svg" xmlns:xlink="http://www.w3.org/1999/xlink" xmlns:ns1="http://sozi.baierouge.fr" xmlns:cc="http://creativecommons.org/ns#" xmlns:sodipodi="http://sodipodi.sourceforge.net/DTD/sodipodi-0.dtd" xmlns:dc="http://purl.org/dc/elements/1.1/" id="svg2" xml:space="preserve" viewBox="0 0 308.5 83.995" version="1.1" inkscape:version="0.91 r13725">
  <defs id="defs6">
    <linearGradient id="linearGradient24" y2="-285.23" gradientUnits="userSpaceOnUse" x2="48.928" gradientTransform="matrix(.000085792 -.8 -.8 .0008 -.00024824 67.2)" y1="-285.23" x1="39.603">
      <stop id="stop26" style="stop-color:#ffffff" offset="0"/>
      <stop id="stop28" style="stop-color:#c8dae3" offset="1"/>
    </linearGradient>
    <linearGradient id="linearGradient42" y2="-280.43" gradientUnits="userSpaceOnUse" x2="34.007" gradientTransform="matrix(.00012549 -.8 -.8 .0008 .00010494 67.2)" y1="-280.43" x1="27.632">
      <stop id="stop44" style="stop-color:#ffffff" offset="0"/>
      <stop id="stop46" style="stop-color:#c8dae3" offset="1"/>
    </linearGradient>
    <linearGradient id="linearGradient60" y2="-276.49" gradientUnits="userSpaceOnUse" x2="27.074" gradientTransform="matrix(.00024242 -.8 -.8 .0008 .00018114 67.2)" y1="-276.49" x1="23.774">
      <stop id="stop62" style="stop-color:#ffffff" offset="0"/>
      <stop id="stop64" style="stop-color:#c8dae3" offset="1"/>
    </linearGradient>
    <linearGradient id="linearGradient78" y2="-272.69" gradientUnits="userSpaceOnUse" x2="21.128" gradientTransform="matrix(.000098768 -.8 -.8 .0008 .00013091 67.2)" y1="-272.69" x1="13.028">
      <stop id="stop80" style="stop-color:#ffffff" offset="0"/>
      <stop id="stop82" style="stop-color:#c8dae3" offset="1"/>
    </linearGradient>
    <linearGradient id="linearGradient96" y2="-286.09" gradientUnits="userSpaceOnUse" x2="22.352" gradientTransform="matrix(.00023704 -.8 -.8 .0008 -.00015672 67.2)" y1="-286.09" x1="18.977">
      <stop id="stop98" style="stop-color:#ffffff" offset="0"/>
      <stop id="stop100" style="stop-color:#c8dae3" offset="1"/>
    </linearGradient>
    <linearGradient id="linearGradient114" y2="-298.79" gradientUnits="userSpaceOnUse" x2="28.339" gradientTransform="matrix(.00020645 -.8 -.8 .0008 .000091387 67.2)" y1="-298.79" x1="24.464">
      <stop id="stop116" style="stop-color:#ffffff" offset="0"/>
      <stop id="stop118" style="stop-color:#c8dae3" offset="1"/>
    </linearGradient>
    <linearGradient id="linearGradient132" y2="-302.72" gradientUnits="userSpaceOnUse" x2="29.385" gradientTransform="matrix(.00026890 -.8 -.8 .0008 -.00022717 67.2)" y1="-302.72" x1="26.41">
      <stop id="stop134" style="stop-color:#ffffff" offset="0"/>
      <stop id="stop136" style="stop-color:#c8dae3" offset="1"/>
    </linearGradient>
    <linearGradient id="linearGradient150" y2="-260.58" gradientUnits="userSpaceOnUse" x2="25.075" gradientTransform="matrix(.00028829 -.8 -.8 .0008 .000090011 67.2)" y1="-260.58" x1="22.302">
      <stop id="stop152" style="stop-color:#ffffff" offset="0"/>
      <stop id="stop154" style="stop-color:#c8dae3" offset="1"/>
    </linearGradient>
    <linearGradient id="linearGradient168" y2="-56.747" gradientUnits="userSpaceOnUse" x2="24.356" gradientTransform="matrix(.000073226 -.8 -.8 .0008 .00031410 67.2)" y1="-56.747" x1="13.431">
      <stop id="stop170" style="stop-color:#ffffff" offset="0"/>
      <stop id="stop172" style="stop-color:#c8dae3" offset="1"/>
    </linearGradient>
    <linearGradient id="linearGradient186" y2="-25.543" gradientUnits="userSpaceOnUse" x2="24.837" gradientTransform="matrix(.00020915 -.8 -.8 .0008 -.000095333 67.2)" y1="-25.543" x1="21.012">
      <stop id="stop188" style="stop-color:#ffffff" offset="0"/>
      <stop id="stop190" style="stop-color:#c8dae3" offset="1"/>
    </linearGradient>
    <linearGradient id="linearGradient204" y2="-18.467" gradientUnits="userSpaceOnUse" x2="28.744" gradientTransform="matrix(.0002406 -.8 -.8 .0008 .00037354 67.2)" y1="-18.467" x1="25.419">
      <stop id="stop206" style="stop-color:#ffffff" offset="0"/>
      <stop id="stop208" style="stop-color:#c8dae3" offset="1"/>
    </linearGradient>
    <linearGradient id="linearGradient222" y2="-10.245" gradientUnits="userSpaceOnUse" x2="41.465" gradientTransform="matrix(.00010596 -.8 -.8 .0008 .00015053 67.2)" y1="-10.245" x1="33.915">
      <stop id="stop224" style="stop-color:#ffffff" offset="0"/>
      <stop id="stop226" style="stop-color:#c8dae3" offset="1"/>
    </linearGradient>
    <linearGradient id="linearGradient240" y2="-15.91" gradientUnits="userSpaceOnUse" x2="33.197" gradientTransform="matrix(.00035955 -.8 -.8 .0008 .00024405 67.2)" y1="-15.91" x1="30.972">
      <stop id="stop242" style="stop-color:#ffffff" offset="0"/>
      <stop id="stop244" style="stop-color:#c8dae3" offset="1"/>
    </linearGradient>
    <linearGradient id="linearGradient258" y2="-2.9844" gradientUnits="userSpaceOnUse" x2="33.635" gradientTransform="matrix(.00038554 -.8 -.8 .0008 -.00020679 67.2)" y1="-2.9844" x1="31.56">
      <stop id="stop260" style="stop-color:#ffffff" offset="0"/>
      <stop id="stop262" style="stop-color:#c8dae3" offset="1"/>
    </linearGradient>
    <linearGradient id="linearGradient276" y2="-130.75" gradientUnits="userSpaceOnUse" x2="7.3569" gradientTransform="matrix(.00058182 -.8 -.8 .0008 .00012321 67.2)" y1="-130.75" x1="5.9819">
      <stop id="stop278" style="stop-color:#ffffff" offset="0"/>
      <stop id="stop280" style="stop-color:#c8dae3" offset="1"/>
    </linearGradient>
    <clipPath id="clipPath288">
      <path id="path290" d="m131.64 64.719c6.398 0.989 11.144 1.641 14.238 1.961 5.176 0.508 9.976 0.641 14.402 0.399 7.785-0.477 13.184-0.918 16.199-1.321 4.965-0.672 9.172-1.652 12.622-2.937l-2.664 1.14c0.48-0.187 2.253-0.839 5.316-1.96 3.254-1.282 5.949-2.52 8.082-3.719 6.586-3.84 7.48-7.336 2.68-10.481 0.187-1.629 2.109-2.906 5.761-3.84 4.321-1.121 6.797-1.988 7.442-2.601 0.636-0.641 1.261-1.574 1.879-2.801 0.664-1.359 1.199-2.293 1.597-2.801 1.121-1.359 2.856-3.144 5.203-5.359 1.731-2.106 2.411-4.52 2.04-7.238-0.348-2.348-2.11-3.84-5.282-4.481-3.867-0.347-6.586-0.785-8.16-1.32-1.68-0.559-2.906-1.16-3.68-1.801-0.961-0.801-1.597-1.933-1.918-3.398-0.242-1.203-0.386-2.426-0.441-3.68-0.238-0.723-1.215-1.16-2.922-1.32-2.265-0.243-4.746 0.078-7.437 0.961-0.856 0.293-1.723 0.906-2.602 1.836-0.961 1.015-1.68 1.644-2.16 1.882-1.145 0.559-3.184 0.813-6.117 0.762-3.309-0.055-5.469 0.051-6.481 0.316-2.8 0.883-4.867 1.52-6.203 1.922-2.371 0.719-4.504 1.094-6.398 1.118-3.625 0.027-6.492-1.227-8.602-3.758-0.719-0.879-1.57-2.188-2.558-3.922-1.387-2.477-2.282-4.024-2.68-4.637-1.867-2.933-4.785-4.094-8.762-3.484-3.492 0.535-6.691 2.136-9.597 4.801-0.801 0.75-1.696 1.789-2.68 3.121-1.254 1.734-2.028 2.761-2.32 3.078-1.895 2.242-4.227 3.308-7 3.203-0.481-0.027-1.52-0.203-3.122-0.52-1.226-0.242-2.265-0.281-3.121-0.121-0.371 0.055-1.039 0.282-2 0.68-0.984 0.375-1.703 0.613-2.16 0.723-0.851 0.183-2.465 0.652-4.84 1.398-1.972 0.641-3.597 1.039-4.879 1.199-3.066 0.403-10.707 0.492-22.918 0.282-9.523-0.161-17.043 0.746-22.562 2.718-3.652 1.414-6.414 2.453-8.277 3.121-3.282 1.172-6.121 1.946-8.524 2.317-5.543 0.484-9.773 0.871-12.68 1.164-5.304 0.531-9.371 1.547-12.199 3.039-3.094 1.625-4.16 3.226-3.199 4.801 0.559 0.879 2.414 2.254 5.559 4.117 5.121 3.015 11.242 5.933 18.359 8.762 1.387 0.558 7.75 2.933 19.082 7.121 5.574 2.05 12.426 3.199 20.559 3.437 4.695 0.16 11.707 0.082 21.043-0.238 2.132-0.027 4.531 0.348 7.199 1.121 1.519 0.426 3.879 1.117 7.078 2.078 2.723 0.695 6.176 1.293 10.359 1.801 6.188 0.773 9.668 1.226 10.442 1.359h0.004z" inkscape:connector-curvature="0"/>
    </clipPath>
    <clipPath id="clipPath296">
      <path id="path298" d="m-0.27822-283.75h85.27v270h-85.27v-270z" inkscape:connector-curvature="0"/>
    </clipPath>
    <linearGradient id="linearGradient300" y2="-148.85" gradientUnits="userSpaceOnUse" x2="79.451" y1="-148.85" x1="3.9512">
      <stop id="stop302" style="stop-color:#ffffff;stop-opacity:0.4" offset="0"/>
      <stop id="stop304" style="stop-color:#ffffff;stop-opacity:0.6" offset=".78430"/>
      <stop id="stop308" style="stop-color:#ffffff;stop-opacity:0.6" offset="1"/>
    </linearGradient>
    <mask id="mask310">
      <g id="g312">
        <g id="g314" clip-path="url(#clipPath296)">
          <path id="path316" style="fill:url(#linearGradient300)" d="m-0.27822-283.75h85.27v270h-85.27v-270z" inkscape:connector-curvature="0"/>
        </g>
      </g>
    </mask>
    <linearGradient id="linearGradient320" y2="-148.85" gradientUnits="userSpaceOnUse" x2="79.451" y1="-148.85" x1="3.9512">
      <stop id="stop322" style="stop-color:#ffffff" offset="0"/>
      <stop id="stop324" style="stop-color:#ccdbe3" offset=".78430"/>
      <stop id="stop328" style="stop-color:#ccdbe3" offset="1"/>
    </linearGradient>
    <linearGradient id="linearGradient344" y2="-261.72" gradientUnits="userSpaceOnUse" x2="46.176" gradientTransform="matrix(.000058076 -.8 -.8 .0008 -.00036641 67.2)" y1="-261.72" x1="32.401">
      <stop id="stop346" style="stop-color:#ffffff" offset="0"/>
      <stop id="stop348" style="stop-color:#c8dae3" offset="1"/>
    </linearGradient>
    <linearGradient id="linearGradient362" y2="-279.75" gradientUnits="userSpaceOnUse" x2="39.32" gradientTransform="matrix(.00025806 -.8 -.8 .0008 .00011629 67.2)" y1="-279.75" x1="36.22">
      <stop id="stop364" style="stop-color:#ffffff" offset="0"/>
      <stop id="stop366" style="stop-color:#c8dae3" offset="1"/>
    </linearGradient>
    <linearGradient id="linearGradient380" y2="-172.98" gradientUnits="userSpaceOnUse" x2="10.302" gradientTransform="matrix(.00013675 -.8 -.8 .0008 3.6298e-7 67.2)" y1="-172.98" x1="4.4521">
      <stop id="stop382" style="stop-color:#ffffff" offset="0"/>
      <stop id="stop384" style="stop-color:#c8dae3" offset="1"/>
    </linearGradient>
    <linearGradient id="linearGradient398" y2="-152.11" gradientUnits="userSpaceOnUse" x2="10.298" gradientTransform="matrix(.00013334 -.8 -.8 .0008 -.00013321 67.2)" y1="-152.11" x1="4.2983">
      <stop id="stop400" style="stop-color:#ffffff" offset="0"/>
      <stop id="stop402" style="stop-color:#c8dae3" offset="1"/>
    </linearGradient>
    <linearGradient id="linearGradient416" y2="-143.78" gradientUnits="userSpaceOnUse" x2="11.594" gradientTransform="matrix(.00020126 -.8 -.8 .0008 -.00024956 67.2)" y1="-143.78" x1="7.6191">
      <stop id="stop418" style="stop-color:#ffffff" offset="0"/>
      <stop id="stop420" style="stop-color:#c8dae3" offset="1"/>
    </linearGradient>
    <linearGradient id="linearGradient434" y2="-153.27" gradientUnits="userSpaceOnUse" x2="12.109" gradientTransform="matrix(.00020915 -.8 -.8 .0008 -.000095333 67.2)" y1="-153.27" x1="8.2842">
      <stop id="stop436" style="stop-color:#ffffff" offset="0"/>
      <stop id="stop438" style="stop-color:#c8dae3" offset="1"/>
    </linearGradient>
    <linearGradient id="linearGradient452" y2="-134.14" gradientUnits="userSpaceOnUse" x2="12.828" gradientTransform="matrix(.00031683 -.8 -.8 .0008 -.00016977 67.2)" y1="-134.14" x1="10.303">
      <stop id="stop454" style="stop-color:#ffffff" offset="0"/>
      <stop id="stop456" style="stop-color:#c8dae3" offset="1"/>
    </linearGradient>
    <linearGradient id="linearGradient470" y2="-145.02" gradientUnits="userSpaceOnUse" x2="13.53" gradientTransform="matrix(.00039024 -.8 -.8 .0008 .000081947 67.2)" y1="-145.02" x1="11.48">
      <stop id="stop472" style="stop-color:#ffffff" offset="0"/>
      <stop id="stop474" style="stop-color:#c8dae3" offset="1"/>
    </linearGradient>
    <linearGradient id="linearGradient488" y2="-43.968" gradientUnits="userSpaceOnUse" x2="32.531" gradientTransform="matrix(.0000884 -.8 -.8 .0008 .00038957 67.2)" y1="-43.968" x1="23.481">
      <stop id="stop490" style="stop-color:#ffffff" offset="0"/>
      <stop id="stop492" style="stop-color:#c8dae3" offset="1"/>
    </linearGradient>
    <linearGradient id="linearGradient506" y2="-66.8" gradientUnits="userSpaceOnUse" x2="24.871" gradientTransform="matrix(.00018286 -.8 -.8 .0008 .00028293 67.2)" y1="-66.8" x1="20.496">
      <stop id="stop508" style="stop-color:#ffffff" offset="0"/>
      <stop id="stop510" style="stop-color:#c8dae3" offset="1"/>
    </linearGradient>
    <linearGradient id="linearGradient524" y2="-60.068" gradientUnits="userSpaceOnUse" x2="29.165" gradientTransform="matrix(.00023189 -.8 -.8 .0008 -.00016596 67.2)" y1="-60.068" x1="25.715">
      <stop id="stop526" style="stop-color:#ffffff" offset="0"/>
      <stop id="stop528" style="stop-color:#c8dae3" offset="1"/>
    </linearGradient>
    <linearGradient id="linearGradient542" y2="-27.01" gradientUnits="userSpaceOnUse" x2="35.886" gradientTransform="matrix(.00015023 -.8 -.8 .0008 -.00022119 67.2)" y1="-27.01" x1="30.56">
      <stop id="stop544" style="stop-color:#ffffff" offset="0"/>
      <stop id="stop546" style="stop-color:#c8dae3" offset="1"/>
    </linearGradient>
    <linearGradient id="linearGradient560" y2="-36.819" gradientUnits="userSpaceOnUse" x2="35.576" gradientTransform="matrix(.00031683 -.8 -.8 .0008 -.00016977 67.2)" y1="-36.819" x1="33.051">
      <stop id="stop562" style="stop-color:#ffffff" offset="0"/>
      <stop id="stop564" style="stop-color:#c8dae3" offset="1"/>
    </linearGradient>
    <linearGradient id="linearGradient578" y2="-23.736" gradientUnits="userSpaceOnUse" x2="40.201" gradientTransform="matrix(.00026230 -.8 -.8 .0008 -.00025769 67.2)" y1="-23.736" x1="37.151">
      <stop id="stop580" style="stop-color:#ffffff" offset="0"/>
      <stop id="stop582" style="stop-color:#c8dae3" offset="1"/>
    </linearGradient>
    <linearGradient id="linearGradient596" y2="-45.413" gradientUnits="userSpaceOnUse" x2="43.43" gradientTransform="matrix(.00069565 -.8 -.8 .0008 .00028459 67.2)" y1="-45.413" x1="42.28">
      <stop id="stop598" style="stop-color:#ffffff" offset="0"/>
      <stop id="stop600" style="stop-color:#c8dae3" offset="1"/>
    </linearGradient>
    <linearGradient id="linearGradient614" y2="-137.12" gradientUnits="userSpaceOnUse" x2="34.438" gradientTransform="matrix(.00019277 -.8 -.8 .0008 .00028360 67.2)" y1="-137.12" x1="30.288">
      <stop id="stop616" style="stop-color:#ffffff" offset="0"/>
      <stop id="stop618" style="stop-color:#c8dae3" offset="1"/>
    </linearGradient>
    <linearGradient id="linearGradient632" y2="-152.72" gradientUnits="userSpaceOnUse" x2="31.385" gradientTransform="matrix(.00136 -.8 -.8 .0008 -.00020188 67.2)" y1="-152.72" x1="30.81">
      <stop id="stop634" style="stop-color:#ffffff" offset="0"/>
      <stop id="stop636" style="stop-color:#c8dae3" offset="1"/>
    </linearGradient>
    <linearGradient id="linearGradient650" y2="-166.42" gradientUnits="userSpaceOnUse" x2="32.946" gradientTransform="matrix(.00029358 -.8 -.8 .0008 -.00036411 67.2)" y1="-166.42" x1="30.221">
      <stop id="stop652" style="stop-color:#ffffff" offset="0"/>
      <stop id="stop654" style="stop-color:#c8dae3" offset="1"/>
    </linearGradient>
    <linearGradient id="linearGradient668" y2="-147.09" gradientUnits="userSpaceOnUse" x2="30.553" gradientTransform="matrix(.00022857 -.8 -.8 .0008 -.00023450 67.2)" y1="-147.09" x1="27.053">
      <stop id="stop670" style="stop-color:#ffffff" offset="0"/>
      <stop id="stop672" style="stop-color:#c8dae3" offset="1"/>
    </linearGradient>
    <linearGradient id="linearGradient686" y2="-145" gradientUnits="userSpaceOnUse" x2="36.68" gradientTransform="matrix(.00012598 -.8 -.8 .0008 .00016980 67.2)" y1="-145" x1="30.33">
      <stop id="stop688" style="stop-color:#ffffff" offset="0"/>
      <stop id="stop690" style="stop-color:#c8dae3" offset="1"/>
    </linearGradient>
    <linearGradient id="linearGradient704" y2="-154.83" gradientUnits="userSpaceOnUse" x2="36.933" gradientTransform="matrix(.00058182 -.8 -.8 .0008 .00012321 67.2)" y1="-154.83" x1="35.558">
      <stop id="stop706" style="stop-color:#ffffff" offset="0"/>
      <stop id="stop708" style="stop-color:#c8dae3" offset="1"/>
    </linearGradient>
    <linearGradient id="linearGradient722" y2="-229.79" gradientUnits="userSpaceOnUse" x2="14.832" gradientTransform="matrix(.00029358 -.8 -.8 .0008 -.00036411 67.2)" y1="-229.79" x1="12.107">
      <stop id="stop724" style="stop-color:#ffffff" offset="0"/>
      <stop id="stop726" style="stop-color:#c8dae3" offset="1"/>
    </linearGradient>
  </defs>
  <g id="g10" transform="matrix(1.25 0 0 -1.25 0 83.995)">
    <g id="g12">
      <g id="g14">
        <g id="g16">
          <g id="g22">
            <path id="path30" style="fill-rule:evenodd;fill:url(#linearGradient24)" d="m228.4 34.719 2 0.403c0.055-0.11 1.028-0.563 2.922-1.364 1.332-0.586 1.602-1.476 0.801-2.679-0.453-0.664-1.281-1.344-2.48-2.039-1.203-0.664-2.215-1.051-3.043-1.161-1.25-0.16-2.52-0.093-3.797 0.2-1.629 0.375-2.59 1.015-2.883 1.922-0.106 0.292-0.133 0.878-0.078 1.757 0.023 0.883 0.105 1.469 0.238 1.762 0.375 0.879 1.309 1.348 2.801 1.398 0.801 0.028 1.973-0.039 3.519-0.199z" inkscape:connector-curvature="0"/>
          </g>
        </g>
      </g>
      <g id="g32">
        <g id="g34">
          <g id="g40">
            <path id="path48" style="fill-rule:evenodd;fill:url(#linearGradient42)" d="m228.76 43.442c1.199-0.242 2.039-0.695 2.519-1.363 0.559-0.746 0.145-1.371-1.242-1.879-0.641-0.215-1.574-0.266-2.801-0.16-1.437 0.16-2.371 0.214-2.797 0.16-1.789-0.293-3.187-0.442-4.203-0.442-1.918-0.023-2.933 0.551-3.039 1.723-0.215 2.32 1.309 3.398 4.559 3.238 0.59-0.027 2.922-0.453 7.004-1.277z" inkscape:connector-curvature="0"/>
          </g>
        </g>
      </g>
      <g id="g50">
        <g id="g52">
          <g id="g58">
            <path id="path66" style="fill-rule:evenodd;fill:url(#linearGradient60)" d="m220.8 47.52 2 0.398c0.105-0.746-0.094-1.41-0.602-2-0.531-0.613-1.172-0.757-1.918-0.437-0.586 0.238-0.816 0.625-0.679 1.16 0.105 0.559 0.503 0.852 1.199 0.879z" inkscape:connector-curvature="0"/>
          </g>
        </g>
      </g>
      <g id="g68">
        <g id="g70">
          <g id="g76">
            <path id="path84" style="fill-rule:evenodd;fill:url(#linearGradient78)" d="m226.8 50.321c-3.336-0.082-5.856-0.149-7.563-0.199-3.066-0.055-5.586 0.011-7.558 0.199-1.121 0.078-2.133 0.586-3.039 1.519-1.016 1.012-1.348 2.067-1 3.161 2.293 0.773 4.492 1.226 6.597 1.359 2.563 0.187 4.75-0.133 6.563-0.961l2-1c0.398-0.211 0.758-0.492 1.078-0.84 0.426-0.48 0.723-0.773 0.883-0.879 0.398-0.293 1.117-0.629 2.16-1 0.984-0.347 1.613-0.668 1.879-0.961l-2-0.398z" inkscape:connector-curvature="0"/>
          </g>
        </g>
      </g>
      <g id="g86">
        <g id="g88">
          <g id="g94">
            <path id="path102" style="fill-rule:evenodd;fill:url(#linearGradient96)" d="m226.08 49.161c-0.504 0.078-0.476 0.465 0.082 1.16 0.535 0.664 0.945 1.055 1.242 1.16 0.504 0.187 1.184 0.266 2.039 0.238 0.934-0.027 1.559-0.183 1.879-0.48 1.254-1.067 0.883-1.731-1.117-2-1.391-0.211-2.762-0.238-4.125-0.078z" inkscape:connector-curvature="0"/>
          </g>
        </g>
      </g>
      <g id="g104">
        <g id="g106">
          <g id="g112">
            <path id="path120" style="fill-rule:evenodd;fill:url(#linearGradient114)" d="m244.4 44.321-1.199 0.398c-0.64 0.293-1.48 0.453-2.519 0.481-1.2-0.055-2.078-0.078-2.641-0.078-1.305-0.11-2.316-0.137-3.039-0.082-1.359 0.105-1.707 0.562-1.039 1.359 0.824 1.016 2.851 1.242 6.078 0.68 3.254-0.532 4.707-1.453 4.359-2.758z" inkscape:connector-curvature="0"/>
          </g>
        </g>
      </g>
      <g id="g122">
        <g id="g124">
          <g id="g130">
            <path id="path138" style="fill-rule:evenodd;fill:url(#linearGradient132)" d="m246 45.122h0.801c-0.774-1.176-2.16-1.735-4.16-1.68-2.321 0.293-3.973 0.465-4.961 0.519-0.508 1.332 0.613 1.934 3.359 1.797 1.414-0.078 3.066-0.293 4.961-0.636z" inkscape:connector-curvature="0"/>
          </g>
        </g>
      </g>
      <g id="g140">
        <g id="g142">
          <g id="g148">
            <path id="path156" style="fill-rule:evenodd;fill:url(#linearGradient150)" d="m208.8 49.122 1.597-0.403c0.243-1.039-0.199-1.625-1.32-1.758-1.012-0.16-1.879 0.012-2.598 0.52 0.161 0.641 0.934 1.187 2.321 1.641z" inkscape:connector-curvature="0"/>
          </g>
        </g>
      </g>
      <g id="g158">
        <g id="g160">
          <g id="g166">
            <path id="path174" style="fill-rule:evenodd;fill:url(#linearGradient168)" d="m59.121 47.918c-0.508-0.023-2.226-0.039-5.16-0.039l-19.52 0.039c-1.679-0.105-2.976-0.183-3.882-0.238-1.653-0.078-2.907 0.055-3.758 0.399 0.187 0.8 0.933 1.32 2.238 1.562 1.441 0.293 2.281 0.625 2.52 1-0.239 0.027-0.934 0.027-2.079 0-0.878 0-1.574 0.117-2.082 0.36 0.297 0.667 1.122 1.144 2.481 1.441 0.723 0.16 1.734 0.371 3.043 0.637 0.156 0.054 0.691 0.308 1.598 0.761 0.585 0.266 1.16 0.426 1.718 0.481 0.348 0.027 0.989 0 1.922-0.082 0.801-0.051 1.426-0.039 1.879 0.043 0.563 0.105 1.453 0.371 2.68 0.797 1.176 0.429 2.093 0.679 2.761 0.761 2.454 0.321 4.829 0.426 7.122 0.321 2.718-0.106 5.05-0.493 7-1.16 0.078-0.559 0.078-0.922 0-1.083l4.398-4.796c-1.066-0.641-2.695-1.043-4.879-1.204z" inkscape:connector-curvature="0"/>
          </g>
        </g>
      </g>
      <g id="g176">
        <g id="g178">
          <g id="g184">
            <path id="path192" style="fill-rule:evenodd;fill:url(#linearGradient186)" d="m22.801 50.321 0.398-1.199c0.242-0.961-0.254-1.547-1.48-1.762-1.012-0.16-1.985-0.078-2.918 0.242-1.602 0.504-1.574 1.106 0.078 1.797 1.519 0.641 2.828 0.949 3.922 0.922z" inkscape:connector-curvature="0"/>
          </g>
        </g>
      </g>
      <g id="g194">
        <g id="g196">
          <g id="g202">
            <path id="path210" style="fill-rule:evenodd;fill:url(#linearGradient204)" d="m17.602 46.758c0.796 0 2-0.011 3.597-0.039l0.801-1.199c-0.559-0.801-1.785-1.238-3.68-1.32-2.16 0.082-3.601 0.121-4.32 0.121-1.465-0.106-2.734-0.121-3.801-0.039-2.133 0.133-2.972 0.613-2.519 1.437 0.242 0.403 1.226 0.657 2.961 0.762 0.906 0.051 2.011 0.094 3.32 0.121 0.961 0.133 2.172 0.184 3.641 0.156z" inkscape:connector-curvature="0"/>
          </g>
        </g>
      </g>
      <g id="g212">
        <g id="g214">
          <g id="g220">
            <path id="path228" style="fill-rule:evenodd;fill:url(#linearGradient222)" d="m9.199 38.321c0.879 0.027 2.016 0.254 3.403 0.68 1.679 0.507 2.812 0.812 3.398 0.917l0.398-0.398c-0.957 0.16-1.945-0.254-2.957-1.238-1.043-1.254-1.761-2.11-2.16-2.563-0.933-1.039-1.789-1.597-2.562-1.679-0.16-0.028-1.184 0.066-3.078 0.281-1.36 0.055-2.426 0.16-3.2 0.32-1.363 0.266-2.175 0.824-2.441 1.68 1.039 0.879 2.508 1.453 4.398 1.719 0.774 0.105 2.375 0.199 4.801 0.281z" inkscape:connector-curvature="0"/>
          </g>
        </g>
      </g>
      <g id="g230">
        <g id="g232">
          <g id="g238">
            <path id="path246" style="fill-rule:evenodd;fill:url(#linearGradient240)" d="m11.602 42.321 3.597-1.199c-0.347-0.508-1.187-0.657-2.519-0.442s-2.133 0.625-2.399 1.238c0.239 0.348 0.68 0.481 1.321 0.403z" inkscape:connector-curvature="0"/>
          </g>
        </g>
      </g>
      <g id="g248">
        <g id="g250">
          <g id="g256">
            <path id="path264" style="fill-rule:evenodd;fill:url(#linearGradient258)" d="m3.602 41.918-0.403-1.597c-0.746-0.133-1.414 0.012-2 0.437 0.613 0.723 1.414 1.11 2.403 1.16z" inkscape:connector-curvature="0"/>
          </g>
        </g>
      </g>
      <g id="g266">
        <g id="g268">
          <g id="g274">
            <path id="path282" style="fill-rule:evenodd;fill:url(#linearGradient276)" d="m106 62.321h1.602c-0.536-0.613-1.547-0.973-3.043-1.082-1.465-0.106-2.454 0.082-2.957 0.562 0.933 0.293 2.398 0.465 4.398 0.52z" inkscape:connector-curvature="0"/>
          </g>
        </g>
      </g>
      <g id="g284">
        <g id="g286" clip-path="url(#clipPath288)">
          <g id="g292" transform="matrix(.000010596 -.8 -.8 .0008 .000014981 67.2)">
            <g id="g318" mask="url(#mask310)">
              <path id="path330" style="fill-rule:evenodd;fill:url(#linearGradient320)" d="m131.64 64.719c6.398 0.989 11.144 1.641 14.238 1.961 5.176 0.508 9.976 0.641 14.402 0.399 7.785-0.477 13.184-0.918 16.199-1.321 4.965-0.672 9.172-1.652 12.622-2.937l-2.664 1.14c0.48-0.187 2.253-0.839 5.316-1.96 3.254-1.282 5.949-2.52 8.082-3.719 6.586-3.84 7.48-7.336 2.68-10.481 0.187-1.629 2.109-2.906 5.761-3.84 4.321-1.121 6.797-1.988 7.442-2.601 0.636-0.641 1.261-1.574 1.879-2.801 0.664-1.359 1.199-2.293 1.597-2.801 1.121-1.359 2.856-3.144 5.203-5.359 1.731-2.106 2.411-4.52 2.04-7.238-0.348-2.348-2.11-3.84-5.282-4.481-3.867-0.347-6.586-0.785-8.16-1.32-1.68-0.559-2.906-1.16-3.68-1.801-0.961-0.801-1.597-1.933-1.918-3.398-0.242-1.203-0.386-2.426-0.441-3.68-0.238-0.723-1.215-1.16-2.922-1.32-2.265-0.243-4.746 0.078-7.437 0.961-0.856 0.293-1.723 0.906-2.602 1.836-0.961 1.015-1.68 1.644-2.16 1.882-1.145 0.559-3.184 0.813-6.117 0.762-3.309-0.055-5.469 0.051-6.481 0.316-2.8 0.883-4.867 1.52-6.203 1.922-2.371 0.719-4.504 1.094-6.398 1.118-3.625 0.027-6.492-1.227-8.602-3.758-0.719-0.879-1.57-2.188-2.558-3.922-1.387-2.477-2.282-4.024-2.68-4.637-1.867-2.933-4.785-4.094-8.762-3.484-3.492 0.535-6.691 2.136-9.597 4.801-0.801 0.75-1.696 1.789-2.68 3.121-1.254 1.734-2.028 2.761-2.32 3.078-1.895 2.242-4.227 3.308-7 3.203-0.481-0.027-1.52-0.203-3.122-0.52-1.226-0.242-2.265-0.281-3.121-0.121-0.371 0.055-1.039 0.282-2 0.68-0.984 0.375-1.703 0.613-2.16 0.723-0.851 0.183-2.465 0.652-4.84 1.398-1.972 0.641-3.597 1.039-4.879 1.199-3.066 0.403-10.707 0.492-22.918 0.282-9.523-0.161-17.043 0.746-22.562 2.718-3.652 1.414-6.414 2.453-8.277 3.121-3.282 1.172-6.121 1.946-8.524 2.317-5.543 0.484-9.773 0.871-12.68 1.164-5.304 0.531-9.371 1.547-12.199 3.039-3.094 1.625-4.16 3.226-3.199 4.801 0.559 0.879 2.414 2.254 5.559 4.117 5.121 3.015 11.242 5.933 18.359 8.762 1.387 0.558 7.75 2.933 19.082 7.121 5.574 2.05 12.426 3.199 20.559 3.437 4.695 0.16 11.707 0.082 21.043-0.238 2.132-0.027 4.531 0.348 7.199 1.121 1.519 0.426 3.879 1.117 7.078 2.078 2.723 0.695 6.176 1.293 10.359 1.801 6.188 0.773 9.668 1.226 10.442 1.359h0.004z" inkscape:connector-curvature="0"/>
            </g>
          </g>
        </g>
      </g>
      <path id="path332" style="fill-rule:evenodd;fill:#ccd8e0" d="m158.04 12.2c-0.719-0.879-1.574-2.188-2.559-3.918-1.386-2.481-2.281-4.028-2.679-4.641-1.867-2.933-4.789-4.094-8.762-3.48-3.492 0.531-6.691 2.132-9.598 4.797-0.8 0.75-1.695 1.789-2.683 3.121-1.25 1.734-2.024 2.761-2.317 3.082-1.894 2.238-4.226 3.304-7 3.199-0.48-0.027-1.519-0.199-3.121-0.52-1.226-0.238-2.265-0.281-3.121-0.121-0.371 0.055-1.039 0.282-2 0.684-0.984 0.371-1.707 0.613-2.16 0.719-0.851 0.183-2.465 0.652-4.84 1.398-1.972 0.641-3.597 1.039-4.879 1.199-3.066 0.403-10.707 0.496-22.922 0.282-9.519-0.161-17.039 0.746-22.558 2.718-3.652 1.414-6.414 2.453-8.281 3.121-3.278 1.172-6.118 1.946-8.52 2.321-5.547 0.48-9.773 0.867-12.68 1.16-5.304 0.531-9.371 1.547-12.199 3.039-1.226 0.668-2.133 1.293-2.719 1.879 5.118-2.613 10.332-3.918 15.637-3.918 3.043 0 6.789 0.039 11.242 0.121 3.492-0.137 6.774-0.883 9.84-2.242 6.481-2.879 9.918-4.387 10.32-4.52 4.481-1.387 10.454-2.012 17.918-1.879 11.973 0.184 18.817 0.266 20.524 0.239 5.305-0.106 9.133-0.625 11.476-1.559 5.762-2.32 9.856-3.121 12.282-2.402 0.906 0.269 2.613 0.882 5.121 1.843 2.293 0.481 4.051-0.226 5.277-2.121 1.551-2.398 2.828-3.972 3.844-4.718 1.199-0.934 3.277-1.79 6.238-2.563 3.149-0.824 5.469-1.105 6.961-0.84 1.602 0.293 3.281 1.375 5.039 3.242 3.254 3.465 5.149 5.387 5.68 5.758 2.055 1.547 4.707 2.321 7.961 2.321 2.558 0 5.078-0.852 7.558-2.559 2.536-1.762 4.907-2.684 7.121-2.762 2.321-0.105 4.84-0.078 7.559 0.082 1.895-0.027 3.547-0.586 4.961-1.679 2.027-1.575 3.879-2.508 5.559-2.801 2.027-0.403 3.468 0.265 4.32 2 1.734 3.414 2.719 5.265 2.961 5.558 1.625 1.84 4.281 2.828 7.961 2.961 5.547 0.188 9.094 1.414 10.637 3.68v-0.32c-0.344-2.348-2.106-3.84-5.278-4.481-3.867-0.347-6.586-0.785-8.16-1.32-1.68-0.559-2.906-1.156-3.68-1.801-0.961-0.797-1.601-1.93-1.922-3.398-0.238-1.2-0.386-2.426-0.441-3.68-0.238-0.719-1.211-1.16-2.918-1.32-2.266-0.239-4.746 0.082-7.441 0.961-0.852 0.293-1.719 0.906-2.598 1.839-0.961 1.016-1.68 1.641-2.16 1.879-1.149 0.563-3.188 0.817-6.121 0.762-3.305-0.055-5.465 0.051-6.481 0.32-2.8 0.879-4.867 1.52-6.199 1.918-2.375 0.719-4.508 1.094-6.398 1.121-3.629 0.024-6.493-1.226-8.602-3.761z" inkscape:connector-curvature="0"/>
      <g id="g334">
        <g id="g336">
          <g id="g342">
            <path id="path350" style="fill-rule:evenodd;fill:url(#linearGradient344)" d="m203.52 41.161c1.253 0.507 2.679 0.757 4.281 0.757 2.453 0.028 4.625-0.371 6.519-1.199 1.387-0.613 3.305-1.812 5.758-3.597l3.199-3.204c0.188-2.105-0.691-3.371-2.636-3.796-0.829-0.164-2.707-0.149-5.641 0.039-3.148 0.238-6.84 0.613-11.082 1.117-1.973 0.027-3.559 0.148-4.758 0.363-2.242 0.371-3.469 1.172-3.683 2.399-0.157 0.906 0.335 1.867 1.48 2.878 0.188 0.161 1.082 0.817 2.684 1.961 1.574 1.094 2.867 1.856 3.879 2.282z" inkscape:connector-curvature="0"/>
          </g>
        </g>
      </g>
      <g id="g352">
        <g id="g354">
          <g id="g360">
            <path id="path368" style="fill-rule:evenodd;fill:url(#linearGradient362)" d="m227.56 38.2c0.429-1.785-0.426-2.692-2.559-2.719-2.559 0.371-4.199 0.598-4.918 0.68-0.32 1.039-0.066 1.679 0.758 1.918 0.187 0.027 1 0.066 2.441 0.121h4.278z" inkscape:connector-curvature="0"/>
          </g>
        </g>
      </g>
      <g id="g370">
        <g id="g372">
          <g id="g378">
            <path id="path386" style="fill-rule:evenodd;fill:url(#linearGradient380)" d="m137.4 62.719 3.204 1.082c1.359 0.106 2.265 0.067 2.718-0.121 0.692-0.265 1.028-0.933 1-2 0-0.961-0.347-1.64-1.043-2.039-0.425-0.242-1.265-0.453-2.519-0.64-1.68-0.215-3.227-0.266-4.637-0.161-2.242 0.161-3.453 0.762-3.641 1.801-0.265 1.52 1.372 2.211 4.918 2.078z" inkscape:connector-curvature="0"/>
          </g>
        </g>
      </g>
      <g id="g388">
        <g id="g390">
          <g id="g396">
            <path id="path404" style="fill-rule:evenodd;fill:url(#linearGradient398)" d="m131.56 63.282c0.961-0.11 1.336-0.817 1.121-2.121-0.184-1.067-0.973-1.735-2.36-2-0.347-0.055-1.492-0.106-3.441-0.16-2.934-0.133-5.172-0.2-6.719-0.2-2.668 0-4.879 0.2-6.64 0.598-1.067 0.242-1.735 0.441-2 0.602-0.719 0.347-1 0.906-0.84 1.679 0.265 1.172 2.054 1.895 5.359 2.16 3.309 0.293 5.453 0.106 6.441-0.558h9.079z" inkscape:connector-curvature="0"/>
          </g>
        </g>
      </g>
      <g id="g406">
        <g id="g408">
          <g id="g414">
            <path id="path422" style="fill-rule:evenodd;fill:url(#linearGradient416)" d="m119.24 58.84c-0.211-0.668-0.918-1.015-2.117-1.039-1.359 0.106-2.266 0.16-2.723 0.16-1.652-0.054-2.503-0.066-2.558-0.043-0.906 0.161-1.254 0.75-1.039 1.762 0.211 0.934 0.867 1.453 1.961 1.559 0.613 0.054 1.547 0.015 2.797-0.117h2.121c0.586-0.188 1.027-0.469 1.32-0.84 0.32-0.43 0.398-0.906 0.238-1.442z" inkscape:connector-curvature="0"/>
          </g>
        </g>
      </g>
      <g id="g424">
        <g id="g426">
          <g id="g432">
            <path id="path440" style="fill-rule:evenodd;fill:url(#linearGradient434)" d="m122.48 60.602h1.598c0.934-0.617 1.082-1.387 0.442-2.32-0.665-0.934-1.575-1.188-2.719-0.762-1.121 0.398-1.602 1.094-1.442 2.082 0.161 0.984 0.868 1.316 2.121 1z" inkscape:connector-curvature="0"/>
          </g>
        </g>
      </g>
      <g id="g442">
        <g id="g444">
          <g id="g450">
            <path id="path458" style="fill-rule:evenodd;fill:url(#linearGradient452)" d="m108.6 59.001 0.558-1.083c-0.64-0.957-1.867-1.277-3.68-0.957-0.082 0.665 0.254 1.161 1 1.481 0.426 0.16 1.133 0.344 2.122 0.559z" inkscape:connector-curvature="0"/>
          </g>
        </g>
      </g>
      <g id="g460">
        <g id="g462">
          <g id="g468">
            <path id="path476" style="fill-rule:evenodd;fill:url(#linearGradient470)" d="m116.6 57.918 1.078-0.519c-0.321-0.641-0.825-1.012-1.52-1.117-0.719-0.11-1.32 0.078-1.801 0.558 0.106 0.536 0.387 0.895 0.84 1.078 0.403 0.161 0.867 0.161 1.403 0z" inkscape:connector-curvature="0"/>
          </g>
        </g>
      </g>
      <g id="g478">
        <g id="g480">
          <g id="g486">
            <path id="path494" style="fill-rule:evenodd;fill:url(#linearGradient488)" d="m40.359 48.879 3.2-0.558c1.496-0.293 2.093-1.414 1.8-3.36-0.265-1.921-1.039-3.121-2.32-3.601-0.746-0.266-1.984-0.348-3.719-0.238-1.867 0.183-3.121 0.277-3.761 0.277-1.571-0.023-2.758-0.051-3.559-0.078-1.465 0-2.668 0.027-3.602 0.078-2.105 0.109-3.253 0.613-3.437 1.519-0.215 0.856 0.465 1.95 2.039 3.282 1.734 1.492 3.828 2.375 6.281 2.64 0.321 0.028 2.68 0.039 7.078 0.039z" inkscape:connector-curvature="0"/>
          </g>
        </g>
      </g>
      <g id="g496">
        <g id="g498">
          <g id="g504">
            <path id="path512" style="fill-rule:evenodd;fill:url(#linearGradient506)" d="m52.078 49.399-0.519 1.602c1.308 0.105 2.386-0.133 3.242-0.719 1.011-0.668 1.32-1.641 0.918-2.922-0.692-0.215-1.52-0.215-2.481 0-0.933 0.187-1.679 0.508-2.238 0.961 0.055 0.586 0.414 0.945 1.078 1.078z" inkscape:connector-curvature="0"/>
          </g>
        </g>
      </g>
      <g id="g514">
        <g id="g516">
          <g id="g522">
            <path id="path530" style="fill-rule:evenodd;fill:url(#linearGradient524)" d="m46.199 46.719 2.16-0.519c1.067 0.105 1.868-0.094 2.403-0.598 0.586-0.535 0.293-1.055-0.883-1.562-0.957-0.426-2.067-0.387-3.32 0.121-1.332 0.558-1.774 1.386-1.321 2.48 0.348 0.16 0.668 0.184 0.961 0.078z" inkscape:connector-curvature="0"/>
          </g>
        </g>
      </g>
      <g id="g532">
        <g id="g534">
          <g id="g540">
            <path id="path548" style="fill-rule:evenodd;fill:url(#linearGradient542)" d="m28.078 43.001-3.199-1.602c0.48-1.84-0.973-2.824-4.359-2.957-3.442-0.109-5.227 0.332-5.36 1.316-0.187 1.735 1.641 2.789 5.481 3.16 0.504 0.055 2.984 0.083 7.437 0.083z" inkscape:connector-curvature="0"/>
          </g>
        </g>
      </g>
      <g id="g550">
        <g id="g552">
          <g id="g558">
            <path id="path566" style="fill-rule:evenodd;fill:url(#linearGradient560)" d="m31.801 40.879c0.426-1.519-0.176-2.265-1.801-2.238-1.629 0.027-2.629 0.774-3 2.238h4.801z" inkscape:connector-curvature="0"/>
          </g>
        </g>
      </g>
      <g id="g568">
        <g id="g570">
          <g id="g576">
            <path id="path584" style="fill-rule:evenodd;fill:url(#linearGradient578)" d="m21.16 37.68 1.039-2.679c-1.437-0.028-2.519-0.016-3.238 0.039-1.227 0.054-2.281 0.253-3.16 0.601 0.16 0.879 0.918 1.453 2.277 1.719 0.723 0.133 1.75 0.242 3.082 0.32z" inkscape:connector-curvature="0"/>
          </g>
        </g>
      </g>
      <g id="g586">
        <g id="g588">
          <g id="g594">
            <path id="path602" style="fill-rule:evenodd;fill:url(#linearGradient596)" d="m33.961 33.399h4.801c-0.321-0.746-1.082-1.066-2.282-0.957-1.121 0.078-1.96 0.398-2.519 0.957z" inkscape:connector-curvature="0"/>
          </g>
        </g>
      </g>
      <g id="g604">
        <g id="g606">
          <g id="g612">
            <path id="path620" style="fill-rule:evenodd;fill:url(#linearGradient614)" d="m114.48 43.001 1.079-0.52c0.242-1.121-0.039-1.879-0.84-2.281-0.481-0.239-1.36-0.375-2.641-0.399-1.84-0.16-3.277-0.254-4.316-0.281-1.95-0.055-3.282 0.199-4 0.762 0.16 1.543 1.691 2.465 4.597 2.758 0.403 0.027 2.442 0.011 6.121-0.039z" inkscape:connector-curvature="0"/>
          </g>
        </g>
      </g>
      <g id="g622">
        <g id="g624">
          <g id="g630">
            <path id="path638" style="fill-rule:evenodd;fill:url(#linearGradient632)" d="m120.36 42.481h3.719c-0.238-0.43-0.703-0.586-1.398-0.48-0.961 0.214-1.735 0.375-2.321 0.48z" inkscape:connector-curvature="0"/>
          </g>
        </g>
      </g>
      <g id="g640">
        <g id="g642">
          <g id="g648">
            <path id="path656" style="fill-rule:evenodd;fill:url(#linearGradient650)" d="m132.6 43.001 3.199-0.52c0.105-0.348 0.094-0.855-0.043-1.52-3.36-0.48-5.117-0.347-5.278 0.399-0.16 0.668 0 1.148 0.481 1.441 0.426 0.293 0.973 0.36 1.641 0.2z" inkscape:connector-curvature="0"/>
          </g>
        </g>
      </g>
      <g id="g658">
        <g id="g660">
          <g id="g666">
            <path id="path674" style="fill-rule:evenodd;fill:url(#linearGradient668)" d="m119.8 45.68 3.2-0.558c-0.48-1.309-1.855-2.11-4.121-2.403-2.133-0.265-3.879-0.039-5.238 0.68-2.907 1.519-0.856 2.281 6.16 2.281z" inkscape:connector-curvature="0"/>
          </g>
        </g>
      </g>
      <g id="g676">
        <g id="g678">
          <g id="g684">
            <path id="path692" style="fill-rule:evenodd;fill:url(#linearGradient686)" d="m120.88 43.001-3.2-5.321c-2.215 0-3.895 0.215-5.039 0.641-1.868 0.691-2.016 1.867-0.442 3.519 0.801 0.852 2.172 1.305 4.121 1.36 1.067 0 2.586-0.067 4.559-0.199z" inkscape:connector-curvature="0"/>
          </g>
        </g>
      </g>
      <g id="g694">
        <g id="g696">
          <g id="g702">
            <path id="path710" style="fill-rule:evenodd;fill:url(#linearGradient704)" d="m123 38.2 2.16 0.519c0.16-0.371 0.094-0.691-0.199-0.961-1.84-0.504-2.641-0.238-2.402 0.801l0.44-0.359z" inkscape:connector-curvature="0"/>
          </g>
        </g>
      </g>
      <g id="g712">
        <g id="g714">
          <g id="g720">
            <path id="path728" style="fill-rule:evenodd;fill:url(#linearGradient722)" d="m183.28 57.399 3.72-2.117c-1.492-0.137-2.652-0.176-3.48-0.121-1.547 0.078-2.493 0.519-2.84 1.32 0.293 0.879 1.16 1.187 2.601 0.918z" inkscape:connector-curvature="0"/>
          </g>
        </g>
      </g>
    </g>
  </g>
<metadata><rdf:RDF><cc:Work><dc:format>image/svg+xml</dc:format><dc:type rdf:resource="http://purl.org/dc/dcmitype/StillImage"/><cc:license rdf:resource="http://creativecommons.org/licenses/publicdomain/"/><dc:publisher><cc:Agent rdf:about="http://openclipart.org/"><dc:title>Openclipart</dc:title></cc:Agent></dc:publisher></cc:Work><cc:License rdf:about="http://creativecommons.org/licenses/publicdomain/"><cc:permits rdf:resource="http://creativecommons.org/ns#Reproduction"/><cc:permits rdf:resource="http://creativecommons.org/ns#Distribution"/><cc:permits rdf:resource="http://creativecommons.org/ns#DerivativeWorks"/></cc:License></rdf:RDF></metadata></svg>
